<svg xmlns="http://www.w3.org/2000/svg" viewBox="0 0 99.33 100.31"><defs><style>.cls-1{fill:none;stroke:#505050;stroke-linecap:round;stroke-miterlimit:10;stroke-width:3.67px;}</style></defs><g id="Layer_2" data-name="Layer 2"><g id="Layer_1-2" data-name="Layer 1"><path class="cls-1" d="M3.16,55.12A1.72,1.72,0,0,0,2,56a1.74,1.74,0,0,0,0,1.48C13.73,81,38.2,97.51,39.25,98.2a1.7,1.7,0,0,0,.91.28,1.55,1.55,0,0,0,.53-.08,1.7,1.7,0,0,0,1-1C46.58,83.84,53.69,76.1,59,71.69L27.7,40.33C14.42,52.53,3.27,55.08,3.16,55.12Z"/><path class="cls-1" d="M95.89,3.44a5.89,5.89,0,0,0-4.33-1.61c-10.72,0-36.7,21.53-41.64,33.39l-4.59-4.6c-1.62-1.63-3.13-2.41-4.65-2.41-2,0-3.32,1.34-4.46,2.48S34.07,33,33,34.09l31.67,31.7c.81-.56,1.52-1,2.1-1.4A13.25,13.25,0,0,0,68.65,63c1.59-1.57,4.52-4.52,0-9L64,49.36c9.39-4,26.06-21.09,32-35.29C98,9.12,98,5.53,95.89,3.44Z"/><path class="cls-1" d="M83.73,18.82a3.2,3.2,0,1,1,3.17-3.21A3.19,3.19,0,0,1,83.73,18.82Z"/></g></g></svg>