<svg xmlns="http://www.w3.org/2000/svg" viewBox="0 0 63.55 107.51"><defs><style>.cls-1{fill:none;stroke:#505050;stroke-linecap:round;stroke-miterlimit:10;stroke-width:3.67px;}</style></defs><g id="Layer_2" data-name="Layer 2"><g id="Layer_1-2" data-name="Layer 1"><path class="cls-1" d="M61.29,53.74c1.91,16.49-2.17,45.53-21.41,51-15.64,4.46-36.41-8-38-20.71C.35,71.09,19.81,66,27.17,44.17,32.15,29.39,29,14.7,25.08,4,29,6.09,57.67,22.47,61.29,53.74Z"/><path class="cls-1" d="M31.11,54.81c-9.77,12.44-11.56,26.34-5.57,33.78,3.41,4.23,11,8.49,17.06,5.57,4.25-2.07,7.39-7.58,6.09-11.49-1.42-4.26-7.09-3.62-11.84-8C33.7,71.74,30.55,66.23,31.11,54.81Z"/></g></g></svg>